<svg width="15" height="16" viewBox="0 0 15 16" fill="none" xmlns="http://www.w3.org/2000/svg">
<path d="M14.958 0H0V16H14.958V0Z" fill="#FFB800"/>
<path d="M11.7757 0.188477H10.4434V0.857831H11.7757V0.188477Z" fill="white"/>
<path d="M13.1096 0.85791H11.7773V1.5273H13.1096V0.85791Z" fill="white"/>
<path d="M11.7757 1.52734H10.4434V2.1967H11.7757V1.52734Z" fill="white"/>
<path d="M13.1096 2.19678H11.7773V2.86613H13.1096V2.19678Z" fill="white"/>
<path d="M11.7834 2.86621C11.2493 2.86621 10.8164 3.32927 10.8164 3.90053V5.54661C10.8164 6.11783 11.2493 6.58092 11.7834 6.58092C12.3175 6.58092 12.7503 6.11783 12.7503 5.54661V3.90053C12.7503 3.32927 12.3175 2.86621 11.7834 2.86621ZM12.1046 5.9971H11.4622V4.52108H12.1046V5.9971Z" fill="white"/>
<path d="M2.06852 8.05469H5.96969V9.00841L3.46548 11.8012H6.06097V12.8266H1.82812V11.8371L4.30614 9.07354H2.06848L2.06852 8.05469Z" fill="white"/>
<path d="M6.73633 8.05469H8.11789V12.8265H6.73633V8.05469Z" fill="white"/>
<path d="M9.10156 8.05469H11.3929C11.892 8.05469 12.2658 8.18163 12.5143 8.43553C12.7628 8.68942 12.8871 9.05072 12.8871 9.51944C12.8871 10.0012 12.7517 10.3777 12.4808 10.6489C12.21 10.9202 11.7967 11.0558 11.2408 11.0558H10.4862V12.8265H9.10156V8.05469ZM10.4862 10.0891H10.824C11.0897 10.0891 11.2763 10.0397 11.3839 9.94097C11.4914 9.84227 11.5451 9.71585 11.5451 9.56175C11.5451 9.41203 11.4985 9.28508 11.4052 9.18091C11.3118 9.07675 11.1363 9.02466 10.8787 9.02466H10.4861V10.0891H10.4862Z" fill="white"/>
</svg>
