<svg width="16" height="16" viewBox="0 0 16 16" fill="none" xmlns="http://www.w3.org/2000/svg">
<path d="M15.9999 0H0V16H15.9999V0Z" fill="#295695"/>
<path d="M11.1799 6.44832C11.3581 6.10406 11.4897 5.82249 11.5748 5.60374C11.6599 5.385 11.7024 5.20273 11.7024 5.05689C11.7024 4.93537 11.6882 4.83818 11.6599 4.76528C11.6315 4.69234 11.5788 4.63162 11.5019 4.58301C11.4249 4.53439 11.3196 4.50003 11.186 4.47971L11.2771 4.07869H13.8594L13.7682 4.47971C13.6346 4.50403 13.5161 4.55261 13.4128 4.62551C13.3095 4.69841 13.2112 4.79564 13.1181 4.91715C13.0249 5.03867 12.9337 5.17746 12.8447 5.33337C12.7555 5.48936 12.636 5.70704 12.4862 5.98654L9.00469 12.4149H7.54648L7.53434 8.50201V7.46909C7.53434 7.20581 7.53634 6.93042 7.54041 6.64274H7.46144C7.32778 6.93038 7.2143 7.17134 7.12118 7.36576L4.58144 12.4149H3.12319L3.00168 5.95004C2.99349 5.56528 2.96415 5.27359 2.91358 5.0751C2.86289 4.87669 2.79512 4.7339 2.71003 4.64674C2.62499 4.5597 2.50544 4.50396 2.35156 4.47967L2.44268 4.07865H5.55356L5.46244 4.47967C5.34489 4.49592 5.24464 4.52323 5.16167 4.5617C5.07859 4.60024 5.0098 4.65692 4.95508 4.73183C4.90039 4.8068 4.86185 4.90297 4.83963 5.02041C4.81731 5.13793 4.80414 5.24519 4.80015 5.34246L4.79407 6.05333L4.76975 8.33792C4.76568 8.67418 4.75549 9.07919 4.73939 9.55311L4.70899 10.2762H4.78796C4.88108 10.0696 4.98136 9.8549 5.08873 9.63209C5.19603 9.40938 5.3915 9.01444 5.67507 8.44725L7.86848 4.07861H9.19911L9.20518 8.05838L9.21126 8.59913C9.21126 9.16628 9.19704 9.72528 9.16875 10.2761H9.24772C9.43807 9.87915 9.78032 9.19256 10.2746 8.21633L11.1799 6.44832Z" fill="white"/>
</svg>
