<svg width="20" height="16" viewBox="0 0 20 16" fill="none" xmlns="http://www.w3.org/2000/svg">
<path d="M19.9999 0H0V16H19.9999V0Z" fill="#0973BA"/>
<path d="M8.76172 3.23099C8.76172 3.23099 10.8553 3.21258 12.6728 4.81386C12.6728 4.81386 11.8216 2.4948 10.0271 2.53161C10.0271 2.53161 8.96872 2.43955 8.76172 3.23099Z" fill="white"/>
<path d="M12.9023 5.54994C12.9023 5.54994 10.8907 3.65419 8.20897 3.83827C8.20897 3.83827 6.0234 3.74621 6.29951 5.51313C6.29951 5.51313 9.06126 4.97939 10.4756 5.64196C10.4756 5.64196 6.41449 6.0653 6.64455 8.69723C6.64455 8.69723 6.57558 10.9059 10.1185 10.7218C10.1185 10.7218 13.9376 10.4641 13.5005 6.80145C13.5005 6.80145 14.2456 6.8567 14.8349 7.15117C14.8349 7.15117 15.4476 5.50928 12.9023 5.54994ZM10.7167 9.3782C8.71514 9.87517 8.76115 8.51319 8.76115 8.51319C8.89919 6.76468 11.5909 6.70946 11.5909 6.70946C12.9712 8.62358 10.7167 9.3782 10.7167 9.3782Z" fill="white"/>
<path d="M10.2109 13.2802C10.7318 13.2802 11.1541 12.9424 11.1541 12.5256C11.1541 12.1089 10.7318 11.771 10.2109 11.771C9.6899 11.771 9.26758 12.1089 9.26758 12.5256C9.26758 12.9424 9.6899 13.2802 10.2109 13.2802Z" fill="white"/>
</svg>
