<svg width="15" height="16" viewBox="0 0 15 16" fill="none" xmlns="http://www.w3.org/2000/svg">
<path d="M14.958 0H0V16H14.958V0Z" fill="#D14527"/>
<path d="M4.0293 3.38867H8.30378C9.2347 3.38867 9.93197 3.62548 10.3956 4.0991C10.8591 4.57271 11.091 5.24671 11.091 6.12108C11.091 7.01973 10.8384 7.72209 10.3331 8.2281C9.82796 8.73415 9.05683 8.9871 8.01996 8.9871H6.61217V12.2903H4.0293V3.38867ZM6.61217 7.18371H7.24227C7.73803 7.18371 8.08613 7.09169 8.28675 6.90742C8.4873 6.72326 8.58758 6.48751 8.58758 6.20005C8.58758 5.92074 8.50045 5.68393 8.32649 5.48962C8.15238 5.29532 7.82498 5.19817 7.34441 5.19817H6.61213V7.18371H6.61217Z" fill="white"/>
</svg>
