<svg width="17" height="16" viewBox="0 0 17 16" fill="none" xmlns="http://www.w3.org/2000/svg">
<path d="M16.0135 0H0.0136719V16H16.0135V0Z" fill="#5D6C82"/>
<path d="M12.6262 7.69426L8.26444 12.056C7.73009 12.5903 7.00536 12.8905 6.24968 12.8905C5.494 12.8905 4.76927 12.5903 4.23493 12.056C3.70058 11.5217 3.40039 10.7969 3.40039 10.0413C3.40039 9.28557 3.70058 8.56084 4.23493 8.0265L8.59667 3.66476C8.9529 3.30853 9.43605 3.1084 9.93984 3.1084C10.4436 3.1084 10.9268 3.30853 11.283 3.66476C11.6392 4.02099 11.8394 4.50414 11.8394 5.00793C11.8394 5.51171 11.6392 5.99486 11.283 6.3511L6.91652 10.7128C6.73841 10.891 6.49683 10.991 6.24494 10.991C5.99304 10.991 5.75147 10.891 5.57335 10.7128C5.39524 10.5347 5.29517 10.2931 5.29517 10.0413C5.29517 9.78936 5.39524 9.54778 5.57335 9.36967L9.60286 5.3449" stroke="#F3F5F8" stroke-width="0.75" stroke-linecap="round" stroke-linejoin="round"/>
</svg>
