<svg width="16" height="17" viewBox="0 0 16 17" fill="none" xmlns="http://www.w3.org/2000/svg">
<path d="M15.9999 0.696289H0V16.6963H15.9999V0.696289Z" fill="#ED1F24"/>
<path d="M12.937 9.8505C12.9257 9.76865 12.8599 9.66594 12.7893 9.59693C12.5871 9.39792 12.1426 9.2936 11.4653 9.28397C11.0063 9.27916 10.4542 9.31928 9.87323 9.40113C9.61324 9.25187 9.34522 9.08817 9.13498 8.89077C8.56845 8.36276 8.09661 7.62932 7.80131 6.82206C7.82056 6.74663 7.83661 6.68083 7.85266 6.61342C7.85266 6.61342 8.17043 4.80309 8.08698 4.19002C8.07574 4.10657 8.06772 4.0825 8.04525 4.01669L8.01797 3.94608C7.9313 3.74547 7.76118 3.53362 7.49477 3.54485L7.33749 3.54004H7.33428C7.03577 3.54004 6.79503 3.6925 6.73084 3.9188C6.53825 4.63137 6.73726 5.69863 7.09836 7.07884L7.00528 7.30353C6.74689 7.93586 6.4227 8.5714 6.13703 9.13151L6.10011 9.20373C5.79839 9.79273 5.52556 10.2935 5.2768 10.7171L5.02162 10.852C5.00236 10.8616 4.56422 11.0943 4.46151 11.1553C3.59005 11.6769 3.01229 12.2675 2.91599 12.7361C2.8855 12.887 2.90797 13.078 3.06364 13.1662L3.3108 13.2914C3.41833 13.3444 3.53227 13.3717 3.64783 13.3717C4.26892 13.3717 4.98952 12.5981 5.98296 10.8648C7.12885 10.4925 8.43524 10.1811 9.57953 10.011C10.451 10.5005 11.5231 10.8423 12.2003 10.8423C12.3207 10.8423 12.425 10.8311 12.5085 10.8086C12.6385 10.7733 12.7476 10.6995 12.815 10.6C12.9466 10.4026 12.9723 10.1298 12.937 9.8505ZM3.51302 12.9014C3.62536 12.5917 4.07473 11.9786 4.73755 11.4361C4.77928 11.4024 4.88199 11.3061 4.97508 11.2163C4.28176 12.322 3.81795 12.7618 3.51302 12.9014ZM7.4386 3.86102C7.63761 3.86102 7.75155 4.36335 7.76118 4.83519C7.77081 5.30703 7.66007 5.63764 7.52366 5.88319C7.40971 5.52048 7.35514 4.94914 7.35514 4.5752C7.35514 4.5752 7.34712 3.86102 7.4386 3.86102ZM6.26702 10.3031C6.40665 10.0543 6.55109 9.79112 6.69874 9.51347C7.05984 8.83139 7.28774 8.29856 7.45625 7.86043C7.79328 8.4735 8.21376 8.99509 8.70647 9.41236C8.76906 9.46372 8.83486 9.51668 8.90227 9.56964C7.8992 9.76705 7.03095 10.0094 6.26702 10.3031ZM12.5951 10.2469C12.5342 10.2838 12.3592 10.3063 12.2469 10.3063C11.8842 10.3063 11.4332 10.141 10.8025 9.86976C11.0448 9.85211 11.2679 9.84248 11.4669 9.84248C11.8312 9.84248 11.9387 9.84087 12.2966 9.93235C12.6529 10.0238 12.6577 10.2084 12.5951 10.2469Z" fill="white"/>
</svg>
