<svg width="72" height="30" viewBox="0 0 72 30" fill="none" xmlns="http://www.w3.org/2000/svg">
<g clip-path="url(#clip0_192_32441)">
<path d="M2.21863 2.82605H0.228516V11.1586H6.33842V9.53804H2.21863V2.82605ZM10.715 7.98226H12.3339V9.44077C11.8704 9.58592 11.3863 9.65976 10.8992 9.65957C9.10728 9.65957 8.51275 8.77905 8.51275 6.99369C8.51275 5.28666 9.07099 4.2927 10.8713 4.2927C11.865 4.2927 12.4344 4.59251 12.9033 5.17052L14.1398 4.0712C13.3862 3.02592 12.0631 2.7207 10.8266 2.7207C8.03546 2.7207 6.58125 4.19277 6.58125 6.9964C6.58125 9.80003 7.90148 11.2991 10.8127 11.2991C12.1497 11.2991 13.4559 10.9695 14.1621 10.4888V6.43727H10.7206L10.715 7.98226Z" fill="#EF3484"/>
<path d="M29.8702 2.81351V0.714844H28.2681V2.81351H26.1523V4.29366H28.2681V6.36802H29.8702V4.29366H31.9999V2.81351H29.8702Z" fill="#EF3484"/>
<path d="M22.834 2.82178V7.63226C22.834 8.96115 22.153 9.61478 20.9975 9.61478C19.8419 9.61478 19.1609 8.96115 19.1609 7.63226V2.81641H17.207V7.65927C17.207 10.2873 18.6529 11.2732 20.9277 11.2732H21.0672C23.342 11.2732 24.7879 10.2873 24.7879 7.65927V2.81641L22.834 2.82178Z" fill="#EF3484"/>
</g>
<path d="M8.30683 18.0102C8.01695 17.6603 7.67707 17.3954 7.28722 17.2155C6.89737 17.0356 6.43255 16.9456 5.89275 16.9456C3.96349 16.9456 2.99886 18.2901 2.99886 20.9791C2.99886 23.3882 3.95849 24.5927 5.87776 24.5927C6.45754 24.5927 7.00233 24.5227 7.51214 24.3828C8.03194 24.2428 8.51675 24.0779 8.96658 23.888L9.46139 25.5673C9.23148 25.6973 8.97158 25.8172 8.68169 25.9272C8.3918 26.0371 8.08192 26.1321 7.75205 26.2121C7.43217 26.2821 7.0973 26.337 6.74743 26.377C6.40756 26.417 6.07269 26.437 5.74281 26.437C3.96349 26.437 2.68398 25.9522 1.90427 24.9825C1.13457 24.0029 0.749714 22.6184 0.749714 20.8291C0.749714 18.9598 1.18955 17.5604 2.06921 16.6307C2.94888 15.6911 4.1984 15.2213 5.81778 15.2213C6.15765 15.2213 6.50252 15.2513 6.85239 15.3112C7.20226 15.3712 7.54213 15.4662 7.872 15.5961C8.20187 15.7161 8.51176 15.871 8.80165 16.0609C9.10153 16.2509 9.36643 16.4808 9.59634 16.7507L8.30683 18.0102ZM10.2996 15.3862H12.8486L15.0078 19.4347H15.3376L17.4968 15.3862H19.9409L16.8521 20.6342L20.1508 26.2571H17.6468L15.2327 21.8337H14.9178L12.5037 26.2571H10.0746L13.3734 20.6792L10.2996 15.3862Z" fill="white"/>
<path d="M22.8523 20.8416H27.5344V20.0749H25.6452C25.0245 20.0749 24.7142 19.7737 24.7142 19.1713V14.6398H32.3945V16.0636H26.5624V16.6523H32.2029V18.035H26.5624V18.4321C26.5624 18.5233 26.5761 18.5826 26.6035 18.61C26.64 18.6374 26.7039 18.6511 26.7952 18.6511H32.3945V20.0749H29.4785V20.8416H34.1469V22.3475H22.8523V20.8416ZM24.7279 25.4005C24.7279 25.0172 24.7963 24.6703 24.9333 24.36C25.0793 24.0497 25.3029 23.7804 25.6041 23.5523C25.9053 23.3241 26.2932 23.1507 26.7678 23.032C27.2424 22.9043 27.8174 22.8404 28.4928 22.8404C29.1682 22.8404 29.7432 22.9043 30.2178 23.032C30.7015 23.1507 31.0939 23.3241 31.3951 23.5523C31.6963 23.7804 31.9154 24.0497 32.0523 24.36C32.1983 24.6703 32.2713 25.0172 32.2713 25.4005C32.2713 25.7747 32.1983 26.1169 32.0523 26.4273C31.9154 26.7467 31.6963 27.016 31.3951 27.235C31.0939 27.4632 30.7015 27.6366 30.2178 27.7552C29.7432 27.883 29.1682 27.9469 28.4928 27.9469C27.8174 27.9469 27.2424 27.883 26.7678 27.7552C26.2932 27.6366 25.9053 27.4632 25.6041 27.235C25.3029 27.016 25.0793 26.7467 24.9333 26.4273C24.7963 26.1169 24.7279 25.7747 24.7279 25.4005ZM26.6856 25.3868C26.6856 25.7975 26.8362 26.0804 27.1374 26.2356C27.4386 26.3908 27.8904 26.4683 28.4928 26.4683C29.1043 26.4683 29.5561 26.3908 29.8481 26.2356C30.1493 26.0804 30.2999 25.7975 30.2999 25.3868C30.2999 24.9852 30.1493 24.7068 29.8481 24.5517C29.5561 24.3965 29.1043 24.3189 28.4928 24.3189C27.8904 24.3189 27.4386 24.3965 27.1374 24.5517C26.8362 24.7068 26.6856 24.9852 26.6856 25.3868ZM39.5447 22.7856V23.9082H43.1453V22.7856H45.0346V27.7689H38.559C37.9475 27.7689 37.6417 27.4495 37.6417 26.8106V22.7856H39.5447ZM36.0262 19.7053C36.0262 19.1394 36.2225 18.6511 36.6149 18.2404H35.2459V16.7892H42.5566V18.2404H41.2149C41.4066 18.4412 41.5526 18.6648 41.653 18.9112C41.7625 19.1576 41.8173 19.4223 41.8173 19.7053C41.8173 20.0521 41.7625 20.3715 41.653 20.6636C41.5435 20.9465 41.3701 21.1884 41.1328 21.3892C40.8955 21.59 40.5943 21.7451 40.2292 21.8547C39.8641 21.9642 39.426 22.0189 38.9149 22.0189C37.9018 22.0189 37.1671 21.809 36.7108 21.3892C36.2544 20.9693 36.0262 20.408 36.0262 19.7053ZM43.1453 14.585H45.0346V17.816H46.8965V19.363H45.0346V22.0463H43.1453V14.585ZM37.1352 14.366C37.3999 14.4938 37.7512 14.5987 38.1893 14.6809C38.6366 14.7539 39.0838 14.7904 39.531 14.7904H40.7084V16.1731H38.956C38.6092 16.1731 38.2441 16.1457 37.8608 16.091C37.4866 16.0362 37.1717 15.9586 36.9161 15.8583L37.1352 14.366ZM37.7923 19.6094C37.7923 20.3305 38.1711 20.691 38.9286 20.691C39.3211 20.691 39.604 20.6043 39.7774 20.4309C39.96 20.2574 40.0512 19.9836 40.0512 19.6094C40.0512 19.2626 39.96 18.9979 39.7774 18.8154C39.604 18.6237 39.3211 18.5279 38.9286 18.5279C38.1711 18.5279 37.7923 18.8884 37.7923 19.6094ZM43.1453 26.3314V25.3457H39.5447V26.1124C39.5447 26.2584 39.6177 26.3314 39.7637 26.3314H43.1453ZM57.5514 15.0505V16.5565H55.977V18.3088C55.977 18.5188 55.9587 18.7469 55.9222 18.9934C55.8948 19.2398 55.8492 19.4588 55.7853 19.6505H57.5514V21.1291H54.2383V23.4428H58.9341V24.9898H47.6395V23.4428H52.3353V21.1291H49.0085V19.6505H50.5829V16.5565H49.0085V15.0505H57.5514ZM52.4038 19.6505H54.1424V16.5565H52.4038V19.6505ZM70.561 21.841V23.6481C70.561 24.0132 70.5382 24.3646 70.4926 24.7023C70.4469 25.04 70.3557 25.3092 70.2188 25.51H64.8932V26.0987C64.8932 26.1991 64.9023 26.2584 64.9206 26.2767C64.9388 26.3041 64.9981 26.3177 65.0985 26.3177H71.1086V27.7963H63.8938C63.5743 27.7963 63.3462 27.7142 63.2092 27.5499C63.0723 27.3947 63.0039 27.1848 63.0039 26.9201V24.0862H68.6717V23.3058H63.0039V21.841H70.561ZM66.1801 14.8041V16.3511H62.3194V17.1588H65.8241V18.6237H62.3194V19.2398C62.3194 19.3584 62.3331 19.436 62.3604 19.4725C62.3969 19.509 62.4654 19.5273 62.5658 19.5273H65.0711C65.4088 19.5273 65.7283 19.4999 66.0295 19.4451C66.3307 19.3904 66.5908 19.3265 66.8098 19.2535L66.9604 20.6225C66.8692 20.6773 66.7505 20.732 66.6045 20.7868C66.4584 20.8416 66.2942 20.8918 66.1116 20.9374C65.9291 20.9739 65.7329 21.0059 65.5229 21.0332C65.3221 21.0515 65.1213 21.0606 64.9206 21.0606H61.4979C61.1511 21.0606 60.8956 20.9785 60.7313 20.8142C60.5761 20.6499 60.4985 20.3807 60.4985 20.0065V14.8041H66.1801ZM70.561 14.585V21.1838H68.6717V18.5142H66.6045V16.9672H68.6717V14.585H70.561Z" fill="white"/>
<defs>
<clipPath id="clip0_192_32441">
<rect width="32" height="10.6667" fill="white" transform="translate(0 0.666016)"/>
</clipPath>
</defs>
</svg>
