<svg xmlns="http://www.w3.org/2000/svg" width="210" height="32" viewBox="0 0 210 32" fill="none">
<g clip-path="url(#clip0_1746_32288)">
<path d="M5.06484 5.34767H0.519531V24.7379H14.4742V20.9667H5.06484V5.34767ZM24.47 17.3464H28.1675V20.7404C27.109 21.0781 26.0033 21.25 24.8908 21.2495C20.7981 21.2495 19.4402 19.2005 19.4402 15.0459C19.4402 11.0736 20.7152 8.76063 24.827 8.76063C27.0965 8.76063 28.397 9.45829 29.4679 10.8033L32.292 8.24519C30.5708 5.81278 27.5491 5.10254 24.725 5.10254C18.3501 5.10254 15.0288 8.52808 15.0288 15.0522C15.0288 21.5764 18.0441 25.0647 24.6931 25.0647C27.7467 25.0647 30.7302 24.2978 32.343 23.1791V13.7511H24.4828L24.47 17.3464Z" fill="#EF3484"/>
<path d="M68.2218 5.31629V0.432617H64.5626V5.31629H59.7305V8.76064H64.5626V13.5877H68.2218V8.76064H73.0859V5.31629H68.2218Z" fill="#EF3484"/>
<path d="M52.1506 5.33477V16.5289C52.1506 19.6213 50.5951 21.1423 47.9559 21.1423C45.3167 21.1423 43.7613 19.6213 43.7613 16.5289V5.32227H39.2988V16.5918C39.2988 22.7074 42.601 25.0015 47.7966 25.0015H48.1153C53.3108 25.0015 56.613 22.7074 56.613 16.5918V5.32227L52.1506 5.33477Z" fill="#EF3484"/>
</g>
<path d="M94.957 9.42799C94.4319 8.79433 93.8164 8.31456 93.1103 7.98868C92.4042 7.6628 91.5624 7.49986 90.5847 7.49986C87.0905 7.49986 85.3435 9.93492 85.3435 14.805C85.3435 19.1682 87.0815 21.3498 90.5576 21.3498C91.6076 21.3498 92.5943 21.2231 93.5177 20.9696C94.4591 20.7162 95.3372 20.4174 96.1519 20.0734L97.048 23.115C96.6316 23.3504 96.1609 23.5676 95.6359 23.7668C95.1108 23.9659 94.5496 24.1379 93.9522 24.2827C93.3728 24.4095 92.7663 24.5091 92.1327 24.5815C91.5171 24.6539 90.9106 24.6901 90.3132 24.6901C87.0905 24.6901 84.7732 23.812 83.361 22.0559C81.967 20.2816 81.2699 17.7742 81.2699 14.5335C81.2699 11.1479 82.0665 8.61329 83.6597 6.92957C85.2529 5.22775 87.516 4.37683 90.4489 4.37683C91.0645 4.37683 91.6891 4.43115 92.3228 4.53977C92.9564 4.6484 93.572 4.82039 94.1694 5.05575C94.7669 5.27301 95.3281 5.55363 95.8531 5.89761C96.3963 6.2416 96.876 6.658 97.2924 7.14682L94.957 9.42799ZM98.5661 4.67556H103.183L107.093 12.0079H107.691L111.601 4.67556H116.028L110.434 14.1804L116.408 24.3642H111.873L107.501 16.353H106.93L102.558 24.3642H98.1587L104.133 14.2619L98.5661 4.67556Z" fill="#666666"/>
<path d="M120.265 14.3671H128.745V12.9786H125.323C124.199 12.9786 123.637 12.4331 123.637 11.3421V3.13486H137.548V5.71357H126.985V6.77977H137.2V9.2841H126.985V10.0032C126.985 10.1685 127.01 10.2759 127.059 10.3255C127.125 10.3751 127.241 10.3999 127.406 10.3999H137.548V12.9786H132.266V14.3671H140.721V17.0946H120.265V14.3671ZM123.662 22.624C123.662 21.9297 123.786 21.3016 124.034 20.7395C124.299 20.1775 124.704 19.6899 125.249 19.2766C125.795 18.8634 126.497 18.5493 127.357 18.3344C128.216 18.103 129.258 17.9873 130.481 17.9873C131.704 17.9873 132.746 18.103 133.605 18.3344C134.481 18.5493 135.192 18.8634 135.738 19.2766C136.283 19.6899 136.68 20.1775 136.928 20.7395C137.192 21.3016 137.324 21.9297 137.324 22.624C137.324 23.3017 137.192 23.9216 136.928 24.4836C136.68 25.0622 136.283 25.5498 135.738 25.9465C135.192 26.3598 134.481 26.6739 133.605 26.8888C132.746 27.1202 131.704 27.2359 130.481 27.2359C129.258 27.2359 128.216 27.1202 127.357 26.8888C126.497 26.6739 125.795 26.3598 125.249 25.9465C124.704 25.5498 124.299 25.0622 124.034 24.4836C123.786 23.9216 123.662 23.3017 123.662 22.624ZM127.208 22.5992C127.208 23.343 127.481 23.8555 128.026 24.1365C128.572 24.4175 129.39 24.558 130.481 24.558C131.588 24.558 132.407 24.4175 132.936 24.1365C133.481 23.8555 133.754 23.343 133.754 22.5992C133.754 21.8719 133.481 21.3677 132.936 21.0867C132.407 20.8057 131.588 20.6651 130.481 20.6651C129.39 20.6651 128.572 20.8057 128.026 21.0867C127.481 21.3677 127.208 21.8719 127.208 22.5992ZM150.498 17.8881V19.9213H157.019V17.8881H160.44V26.9136H148.712C147.605 26.9136 147.051 26.335 147.051 25.1779V17.8881H150.498ZM144.125 12.3091C144.125 11.2843 144.481 10.3999 145.191 9.65603H142.712V7.02773H155.952V9.65603H153.523C153.87 10.0197 154.134 10.4247 154.316 10.871C154.514 11.3173 154.614 11.7967 154.614 12.3091C154.614 12.9373 154.514 13.5158 154.316 14.0448C154.118 14.5572 153.804 14.9953 153.374 15.359C152.944 15.7226 152.398 16.0036 151.737 16.202C151.076 16.4004 150.283 16.4995 149.357 16.4995C147.522 16.4995 146.191 16.1193 145.365 15.359C144.538 14.5986 144.125 13.582 144.125 12.3091ZM157.019 3.03568H160.44V8.88737H163.813V11.6892H160.44V16.5491H157.019V3.03568ZM146.134 2.63895C146.613 2.87038 147.249 3.06047 148.043 3.20925C148.853 3.34149 149.663 3.40761 150.473 3.40761H152.605V5.91194H149.431C148.803 5.91194 148.142 5.86235 147.448 5.76316C146.77 5.66398 146.2 5.52348 145.737 5.34164L146.134 2.63895ZM147.324 12.1356C147.324 13.4414 148.01 14.0944 149.382 14.0944C150.093 14.0944 150.605 13.9374 150.919 13.6233C151.25 13.3092 151.415 12.8133 151.415 12.1356C151.415 11.5074 151.25 11.028 150.919 10.6974C150.605 10.3503 150.093 10.1767 149.382 10.1767C148.01 10.1767 147.324 10.8297 147.324 12.1356ZM157.019 24.3101V22.5248H150.498V23.9133C150.498 24.1778 150.63 24.3101 150.894 24.3101H157.019ZM183.11 3.87872V6.6062H180.259V9.78001C180.259 10.1602 180.226 10.5735 180.159 11.0198C180.11 11.4661 180.027 11.8628 179.912 12.2099H183.11V14.8878H177.11V19.0782H185.614V21.8801H165.158V19.0782H173.663V14.8878H167.638V12.2099H170.489V6.6062H167.638V3.87872H183.11ZM173.787 12.2099H176.936V6.6062H173.787V12.2099ZM206.672 16.1772V19.4502C206.672 20.1114 206.631 20.7478 206.548 21.3594C206.466 21.971 206.301 22.4587 206.053 22.8223H196.407V23.8885C196.407 24.0704 196.424 24.1778 196.457 24.2109C196.49 24.2605 196.597 24.2853 196.779 24.2853H207.664V26.9632H194.597C194.019 26.9632 193.605 26.8144 193.357 26.5168C193.109 26.2358 192.985 25.8556 192.985 25.3763V20.2436H203.251V18.8303H192.985V16.1772H206.672ZM198.738 3.4324V6.23428H191.746V7.6972H198.093V10.3503H191.746V11.4661C191.746 11.681 191.77 11.8215 191.82 11.8876C191.886 11.9537 192.01 11.9868 192.192 11.9868H196.73C197.341 11.9868 197.92 11.9372 198.465 11.838C199.011 11.7388 199.482 11.6231 199.879 11.4909L200.151 13.9704C199.986 14.0696 199.771 14.1688 199.507 14.268C199.242 14.3671 198.945 14.4581 198.614 14.5407C198.283 14.6068 197.928 14.6647 197.548 14.7143C197.184 14.7473 196.82 14.7639 196.457 14.7639H190.258C189.63 14.7639 189.167 14.6151 188.869 14.3175C188.588 14.02 188.448 13.5324 188.448 12.8546V3.4324H198.738ZM206.672 3.03568V14.987H203.251V10.1519H199.507V7.35006H203.251V3.03568H206.672Z" fill="#666666"/>
<defs>
<clipPath id="clip0_1746_32288">
<rect width="73.0861" height="24.8217" fill="white" transform="translate(0 0.319336)"/>
</clipPath>
</defs>
</svg>