<svg width="25" height="24" viewBox="0 0 25 24" fill="none" xmlns="http://www.w3.org/2000/svg">
<path fill-rule="evenodd" clip-rule="evenodd" d="M18.7258 5.30854V8.31294C19.089 8.31294 19.4486 8.38447 19.7842 8.52346C20.1197 8.66244 20.4246 8.86616 20.6814 9.12297C20.9382 9.37978 21.1419 9.68466 21.2809 10.0202C21.4199 10.3557 21.4914 10.7154 21.4914 11.0786C21.4914 11.4417 21.4199 11.8014 21.2809 12.1369C21.1419 12.4725 20.9382 12.7773 20.6814 13.0342C20.4246 13.291 20.1197 13.4947 19.7842 13.6337C19.4486 13.7727 19.089 13.8442 18.7258 13.8442V16.6098C18.7258 18.1291 16.9918 18.9965 15.7758 18.0848L13.8768 16.6596C12.8616 15.8985 11.6797 15.3903 10.4289 15.1772V17.799C10.429 18.4017 10.2113 18.9841 9.81581 19.4389C9.42033 19.8936 8.87379 20.1901 8.27694 20.2736C7.68009 20.3571 7.07316 20.2221 6.56803 19.8934C6.06289 19.5647 5.69362 19.0644 5.52826 18.4849L4.08092 13.4183C3.56007 12.8032 3.22112 12.055 3.10215 11.2579C2.98318 10.4607 3.08892 9.64619 3.40747 8.90583C3.72603 8.16547 4.24477 7.52864 4.9054 7.06693C5.56602 6.60521 6.34233 6.33691 7.14707 6.29219L9.92929 6.13731C11.2906 6.06156 12.6144 5.66378 13.7919 4.97667L15.9528 3.71554C17.1826 2.99925 18.7258 3.88517 18.7258 5.30854ZM6.40404 14.838L7.30103 17.9788C7.34419 18.1308 7.44091 18.2621 7.57332 18.3484C7.70573 18.4347 7.86489 18.4701 8.02141 18.4482C8.17792 18.4263 8.32123 18.3485 8.42485 18.2292C8.52848 18.1099 8.58544 17.9571 8.5852 17.799V15.0242L7.14707 14.944C6.89681 14.9301 6.64821 14.8946 6.40404 14.838ZM16.8821 5.30854L14.7203 6.57059C13.4069 7.33616 11.9425 7.80616 10.4289 7.94787V13.3123C12.0763 13.539 13.6444 14.1816 14.983 15.1846L16.8821 16.6098V5.30854ZM8.5852 8.0585L7.24848 8.13225C6.62663 8.16658 6.04024 8.4328 5.60507 8.87834C5.1699 9.32388 4.91757 9.91638 4.89789 10.5389C4.8782 11.1614 5.0926 11.7686 5.49876 12.2408C5.90492 12.7129 6.47332 13.0156 7.09176 13.0892L7.24848 13.103L8.5852 13.1767V8.0585ZM18.7258 10.1567V12.0004C18.9608 12.0002 19.1868 11.9102 19.3576 11.7489C19.5285 11.5876 19.6313 11.3672 19.6451 11.1326C19.6589 10.898 19.5825 10.6671 19.4317 10.4869C19.2809 10.3067 19.067 10.1909 18.8337 10.1631L18.7258 10.1567Z" fill="#999999"/>
</svg>
