<svg width="24" height="24" viewBox="0 0 24 24" fill="none" xmlns="http://www.w3.org/2000/svg">
<path d="M19.5524 5.77627V10.4429M19.5524 10.4429H14.8857M19.5524 10.4429L15.9513 7.05182C14.8784 5.97829 13.4857 5.28253 11.9831 5.06938C10.4804 4.85624 8.94911 5.13726 7.62003 5.8701C6.29095 6.60294 5.23606 7.74789 4.61432 9.13243C3.99257 10.517 3.83766 12.0661 4.17293 13.5463C4.5082 15.0265 5.31548 16.3577 6.47312 17.3392C7.63076 18.3207 9.07605 18.8994 10.5912 18.988C12.1063 19.0767 13.6092 18.6705 14.8734 17.8307C16.1376 16.9908 17.0946 15.7629 17.6002 14.3318" stroke="#9E4EFF" stroke-linecap="round" stroke-linejoin="round"/>
</svg>
