<svg xmlns="http://www.w3.org/2000/svg" width="24" height="25" viewBox="0 0 24 25" fill="none">
<g clip-path="url(#clip0_198_43272)">
<path d="M3.11328 12.3383C3.11328 13.1115 3.74008 13.7383 4.51328 13.7383H9.71328C10.4865 13.7383 11.1133 13.1115 11.1133 12.3383V5.13828C11.1133 4.36508 10.4865 3.73828 9.71328 3.73828H4.51328C3.74008 3.73828 3.11328 4.36508 3.11328 5.13828V12.3383ZM3.11328 19.8601C3.11328 20.6333 3.74008 21.2601 4.51328 21.2601H9.71328C10.4865 21.2601 11.1133 20.6333 11.1133 19.8601V16.6601C11.1133 15.8869 10.4865 15.2601 9.71328 15.2601H4.51328C3.74008 15.2601 3.11328 15.8869 3.11328 16.6601V19.8601ZM12.8843 19.8601C12.8843 20.6333 13.5111 21.2601 14.2843 21.2601H19.4843C20.2575 21.2601 20.8843 20.6333 20.8843 19.8601V12.6601C20.8843 11.8869 20.2575 11.2601 19.4843 11.2601H14.2843C13.5111 11.2601 12.8843 11.8869 12.8843 12.6601V19.8601ZM14.2843 3.73828C13.5111 3.73828 12.8843 4.36508 12.8843 5.13828V8.33828C12.8843 9.11148 13.5111 9.73828 14.2843 9.73828H19.4843C20.2575 9.73828 20.8843 9.11148 20.8843 8.33828V5.13828C20.8843 4.36508 20.2575 3.73828 19.4843 3.73828H14.2843Z" fill="white"/>
</g>
<defs>
<clipPath id="clip0_198_43272">
<rect width="24" height="24" fill="white" transform="translate(0 0.5)"/>
</clipPath>
</defs>
</svg>