<svg width="25" height="25" viewBox="0 0 25 25" fill="none" xmlns="http://www.w3.org/2000/svg">
<path fill-rule="evenodd" clip-rule="evenodd" d="M5.98828 3.5C4.88371 3.5 3.98828 4.39543 3.98828 5.5V19.5C3.98828 20.6046 4.88371 21.5 5.98828 21.5H19.9883C21.0929 21.5 21.9883 20.6046 21.9883 19.5V5.5C21.9883 4.39543 21.0929 3.5 19.9883 3.5H5.98828ZM9.24233 17.6088C10.1096 17.3021 10.7312 16.4742 10.7312 15.502C10.7313 15.04 10.5882 14.5893 10.3216 14.212C10.0549 13.8347 9.67788 13.5493 9.24233 13.3952L9.24233 6.56866C9.24233 6.37122 9.1639 6.18187 9.02429 6.04226C8.88468 5.90265 8.69532 5.82422 8.49788 5.82422C8.30044 5.82422 8.11109 5.90265 7.97148 6.04226C7.83187 6.18187 7.75344 6.37122 7.75344 6.56866L7.75344 13.3952C7.31754 13.549 6.94008 13.8342 6.67309 14.2116C6.4061 14.5889 6.26273 15.0398 6.26273 15.502C6.26273 15.9642 6.4061 16.4151 6.67309 16.7924C6.94008 17.1697 7.31754 17.455 7.75344 17.6088V18.4798C7.75344 18.6772 7.83187 18.8666 7.97148 19.0062C8.11109 19.1458 8.30044 19.2242 8.49788 19.2242C8.69532 19.2242 8.88467 19.1458 9.02428 19.0062C9.1639 18.8666 9.24233 18.6772 9.24233 18.4798V17.6088ZM9.02428 14.9756C9.1639 15.1152 9.24233 15.3046 9.24233 15.502C9.24233 15.6994 9.1639 15.8888 9.02428 16.0284C8.88467 16.168 8.69532 16.2464 8.49788 16.2464C8.30044 16.2464 8.11109 16.168 7.97148 16.0284C7.83187 15.8888 7.75344 15.6994 7.75344 15.502C7.75344 15.3046 7.83187 15.1152 7.97148 14.9756C8.11109 14.836 8.30044 14.7576 8.49788 14.7576C8.69532 14.7576 8.88467 14.836 9.02428 14.9756ZM14.8269 10.7793C15.0689 10.4137 15.1979 9.98491 15.1979 9.54644C15.198 9.08443 15.0549 8.63373 14.7883 8.25643C14.5216 7.87913 14.1446 7.59377 13.709 7.43966V6.56866L13.7038 6.48156C13.6814 6.29315 13.5879 6.1204 13.4424 5.99862C13.2969 5.87683 13.1103 5.8152 12.9209 5.82632C12.7315 5.83744 12.5535 5.92047 12.4232 6.05844C12.293 6.19642 12.2203 6.37892 12.2201 6.56866V7.43966L12.0921 7.49028C11.6775 7.66617 11.3258 7.96322 11.0831 8.34247C10.8403 8.72172 10.7178 9.16548 10.7317 9.61556C10.7455 10.0656 10.8951 10.501 11.1607 10.8647C11.4263 11.2283 11.7956 11.5031 12.2201 11.6532L12.2201 18.4798L12.2253 18.5669C12.2477 18.7553 12.3412 18.928 12.4867 19.0498C12.6322 19.1716 12.8188 19.2332 13.0082 19.2221C13.1976 19.211 13.3756 19.128 13.5059 18.99C13.6361 18.852 13.7088 18.6695 13.709 18.4798L13.709 11.6525L13.837 11.6026C14.2407 11.4313 14.5849 11.145 14.8269 10.7793ZM13.491 9.02004C13.6306 9.15965 13.709 9.349 13.709 9.54644C13.709 9.74388 13.6306 9.93323 13.491 10.0728C13.3513 10.2125 13.162 10.2909 12.9646 10.2909C12.7671 10.2909 12.5778 10.2125 12.4381 10.0728C12.2985 9.93323 12.2201 9.74388 12.2201 9.54644C12.2201 9.349 12.2985 9.15965 12.4381 9.02004C12.5778 8.88043 12.7671 8.802 12.9646 8.802C13.162 8.802 13.3513 8.88043 13.491 9.02004ZM18.1757 17.6088C19.0429 17.3021 19.6645 16.4742 19.6645 15.502C19.6647 15.04 19.5216 14.5893 19.2549 14.212C18.9883 13.8347 18.6112 13.5493 18.1757 13.3952L18.1757 6.56866C18.1757 6.37122 18.0972 6.18187 17.9576 6.04226C17.818 5.90265 17.6287 5.82422 17.4312 5.82422C17.2338 5.82422 17.0444 5.90265 16.9048 6.04226C16.7652 6.18187 16.6868 6.37122 16.6868 6.56866V13.3952C16.2509 13.549 15.8734 13.8342 15.6064 14.2116C15.3394 14.5889 15.1961 15.0398 15.1961 15.502C15.1961 15.9642 15.3394 16.4151 15.6064 16.7924C15.8734 17.1697 16.2509 17.455 16.6868 17.6088V18.4798C16.6868 18.6772 16.7652 18.8666 16.9048 19.0062C17.0444 19.1458 17.2338 19.2242 17.4312 19.2242C17.6287 19.2242 17.818 19.1458 17.9576 19.0062C18.0972 18.8666 18.1757 18.6772 18.1757 18.4798V17.6088ZM17.9576 14.9756C18.0972 15.1152 18.1757 15.3046 18.1757 15.502C18.1757 15.6994 18.0972 15.8888 17.9576 16.0284C17.818 16.168 17.6287 16.2464 17.4312 16.2464C17.2338 16.2464 17.0444 16.168 16.9048 16.0284C16.7652 15.8888 16.6868 15.6994 16.6868 15.502C16.6868 15.3046 16.7652 15.1152 16.9048 14.9756C17.0444 14.836 17.2338 14.7576 17.4312 14.7576C17.6287 14.7576 17.818 14.836 17.9576 14.9756Z" fill="#F9F9F9"/>
</svg>
