<svg width="25" height="25" viewBox="0 0 25 25" fill="none" xmlns="http://www.w3.org/2000/svg">
<path d="M20.5267 4H4.44984C4.06222 4 3.69047 4.15398 3.41638 4.42807C3.14229 4.70217 2.98831 5.07391 2.98831 5.46154V20.0769C2.98662 20.3556 3.06546 20.6289 3.21536 20.8638C3.36525 21.0988 3.57981 21.2855 3.83326 21.4014C4.02639 21.4913 4.2368 21.5381 4.44984 21.5384C4.79294 21.5376 5.12466 21.4153 5.38614 21.1931C5.3905 21.1903 5.39449 21.1869 5.39802 21.1831L8.33205 18.6154H20.5267C20.9144 18.6154 21.2861 18.4614 21.5602 18.1873C21.8343 17.9132 21.9883 17.5415 21.9883 17.1538V5.46154C21.9883 5.07391 21.8343 4.70217 21.5602 4.42807C21.2861 4.15398 20.9144 4 20.5267 4ZM8.46907 12.4038C8.25227 12.4038 8.04034 12.3395 7.86008 12.2191C7.67982 12.0987 7.53932 11.9275 7.45636 11.7272C7.37339 11.5269 7.35168 11.3065 7.39398 11.0938C7.43627 10.8812 7.54067 10.6859 7.69397 10.5326C7.84727 10.3793 8.04259 10.2749 8.25522 10.2326C8.46785 10.1903 8.68825 10.212 8.88855 10.295C9.08884 10.3779 9.26004 10.5184 9.38049 10.6987C9.50093 10.879 9.56522 11.0909 9.56522 11.3077C9.56522 11.5984 9.44973 11.8772 9.24417 12.0828C9.0386 12.2883 8.75979 12.4038 8.46907 12.4038ZM12.4883 12.4038C12.2715 12.4038 12.0596 12.3395 11.8793 12.2191C11.699 12.0987 11.5585 11.9275 11.4756 11.7272C11.3926 11.5269 11.3709 11.3065 11.4132 11.0938C11.4555 10.8812 11.5599 10.6859 11.7132 10.5326C11.8665 10.3793 12.0618 10.2749 12.2744 10.2326C12.4871 10.1903 12.7075 10.212 12.9078 10.295C13.1081 10.3779 13.2793 10.5184 13.3997 10.6987C13.5202 10.879 13.5844 11.0909 13.5844 11.3077C13.5844 11.5984 13.469 11.8772 13.2634 12.0828C13.0578 12.2883 12.779 12.4038 12.4883 12.4038ZM16.5075 12.4038C16.2907 12.4038 16.0788 12.3395 15.8985 12.2191C15.7183 12.0987 15.5778 11.9275 15.4948 11.7272C15.4118 11.5269 15.3901 11.3065 15.4324 11.0938C15.4747 10.8812 15.5791 10.6859 15.7324 10.5326C15.8857 10.3793 16.081 10.2749 16.2937 10.2326C16.5063 10.1903 16.7267 10.212 16.927 10.295C17.1273 10.3779 17.2985 10.5184 17.4189 10.6987C17.5394 10.879 17.6037 11.0909 17.6037 11.3077C17.6037 11.5984 17.4882 11.8772 17.2826 12.0828C17.077 12.2883 16.7982 12.4038 16.5075 12.4038Z" fill="#EC008B"/>
</svg>
