<svg width="24" height="25" viewBox="0 0 24 25" fill="none" xmlns="http://www.w3.org/2000/svg">
<path d="M5.77107 4.88686H18.2289V3.8487C18.2289 3.57337 18.1196 3.30931 17.9249 3.11462C17.7302 2.91992 17.4661 2.81055 17.1908 2.81055H3.52173C3.2005 2.81055 2.89243 2.93815 2.66529 3.16529C2.43815 3.39243 2.31055 3.7005 2.31055 4.02173V17.6908C2.31055 17.9661 2.41992 18.2302 2.61462 18.4249C2.80931 18.6196 3.07337 18.7289 3.3487 18.7289H4.38686V6.27107C4.38686 5.90395 4.53269 5.55187 4.79228 5.29228C5.05187 5.03269 5.40395 4.88686 5.77107 4.88686Z" fill="white"/>
<path fill-rule="evenodd" clip-rule="evenodd" d="M6.80769 22.1899H20.6498C20.9251 22.1899 21.1892 22.0805 21.3838 21.8858C21.5785 21.6911 21.6879 21.4271 21.6879 21.1517V7.30964C21.6879 7.0343 21.5785 6.77024 21.3838 6.57555C21.1892 6.38086 20.9251 6.27148 20.6498 6.27148H6.46164C6.27808 6.27148 6.10204 6.3444 5.97224 6.4742C5.84245 6.60399 5.76953 6.78003 5.76953 6.96359V21.1517C5.76953 21.4271 5.87891 21.6911 6.0736 21.8858C6.26829 22.0805 6.53235 22.1899 6.80769 22.1899ZM18.4746 9.05638H8.99111V11.1656H18.4746V9.05638ZM8.99111 13.176H18.4746V15.2853H8.99111V13.176ZM15.8605 17.2957H8.99111V19.405H15.8605V17.2957Z" fill="white"/>
</svg>
