<svg width="25" height="25" viewBox="0 0 25 25" fill="none" xmlns="http://www.w3.org/2000/svg">
<g clip-path="url(#clip0_192_30638)">
<path d="M4.10156 12.3383C4.10156 13.1115 4.72836 13.7383 5.50156 13.7383H10.7016C11.4748 13.7383 12.1016 13.1115 12.1016 12.3383V5.13828C12.1016 4.36508 11.4748 3.73828 10.7016 3.73828H5.50156C4.72836 3.73828 4.10156 4.36508 4.10156 5.13828V12.3383ZM4.10156 19.8601C4.10156 20.6333 4.72836 21.2601 5.50156 21.2601H10.7016C11.4748 21.2601 12.1016 20.6333 12.1016 19.8601V16.6601C12.1016 15.8869 11.4748 15.2601 10.7016 15.2601H5.50156C4.72836 15.2601 4.10156 15.8869 4.10156 16.6601V19.8601ZM13.8726 19.8601C13.8726 20.6333 14.4994 21.2601 15.2726 21.2601H20.4726C21.2458 21.2601 21.8726 20.6333 21.8726 19.8601V12.6601C21.8726 11.8869 21.2458 11.2601 20.4726 11.2601H15.2726C14.4994 11.2601 13.8726 11.8869 13.8726 12.6601V19.8601ZM15.2726 3.73828C14.4994 3.73828 13.8726 4.36508 13.8726 5.13828V8.33828C13.8726 9.11148 14.4994 9.73828 15.2726 9.73828H20.4726C21.2458 9.73828 21.8726 9.11148 21.8726 8.33828V5.13828C21.8726 4.36508 21.2458 3.73828 20.4726 3.73828H15.2726Z" fill="#EC008B"/>
</g>
<defs>
<clipPath id="clip0_192_30638">
<rect width="24" height="24" fill="white" transform="translate(0.988281 0.5)"/>
</clipPath>
</defs>
</svg>
