<svg width="25" height="25" viewBox="0 0 25 25" fill="none" xmlns="http://www.w3.org/2000/svg">
<path fill-rule="evenodd" clip-rule="evenodd" d="M5.48828 3.5C4.38371 3.5 3.48828 4.39543 3.48828 5.5V19.5C3.48828 20.6046 4.38371 21.5 5.48828 21.5H19.4883C20.5929 21.5 21.4883 20.6046 21.4883 19.5V5.5C21.4883 4.39543 20.5929 3.5 19.4883 3.5H5.48828ZM8.74233 17.6088C9.60961 17.3021 10.2312 16.4742 10.2312 15.502C10.2313 15.04 10.0882 14.5893 9.82159 14.212C9.55495 13.8347 9.17788 13.5493 8.74233 13.3952L8.74233 6.56866C8.74233 6.37122 8.6639 6.18187 8.52429 6.04226C8.38468 5.90265 8.19532 5.82422 7.99788 5.82422C7.80044 5.82422 7.61109 5.90265 7.47148 6.04226C7.33187 6.18187 7.25344 6.37122 7.25344 6.56866L7.25344 13.3952C6.81754 13.549 6.44008 13.8342 6.17309 14.2116C5.9061 14.5889 5.76273 15.0398 5.76273 15.502C5.76273 15.9642 5.9061 16.4151 6.17309 16.7924C6.44008 17.1697 6.81754 17.455 7.25344 17.6088V18.4798C7.25344 18.6772 7.33187 18.8666 7.47148 19.0062C7.61109 19.1458 7.80044 19.2242 7.99788 19.2242C8.19532 19.2242 8.38467 19.1458 8.52428 19.0062C8.6639 18.8666 8.74233 18.6772 8.74233 18.4798V17.6088ZM8.52428 14.9756C8.6639 15.1152 8.74233 15.3046 8.74233 15.502C8.74233 15.6994 8.6639 15.8888 8.52428 16.0284C8.38467 16.168 8.19532 16.2464 7.99788 16.2464C7.80044 16.2464 7.61109 16.168 7.47148 16.0284C7.33187 15.8888 7.25344 15.6994 7.25344 15.502C7.25344 15.3046 7.33187 15.1152 7.47148 14.9756C7.61109 14.836 7.80044 14.7576 7.99788 14.7576C8.19532 14.7576 8.38467 14.836 8.52428 14.9756ZM14.3269 10.7793C14.5689 10.4137 14.6979 9.98491 14.6979 9.54644C14.698 9.08443 14.5549 8.63373 14.2883 8.25643C14.0216 7.87913 13.6446 7.59377 13.209 7.43966V6.56866L13.2038 6.48156C13.1814 6.29315 13.0879 6.1204 12.9424 5.99862C12.7969 5.87683 12.6103 5.8152 12.4209 5.82632C12.2315 5.83744 12.0535 5.92047 11.9232 6.05844C11.793 6.19642 11.7203 6.37892 11.7201 6.56866V7.43966L11.5921 7.49028C11.1775 7.66617 10.8258 7.96322 10.5831 8.34247C10.3403 8.72172 10.2178 9.16548 10.2317 9.61556C10.2455 10.0656 10.3951 10.501 10.6607 10.8647C10.9263 11.2283 11.2956 11.5031 11.7201 11.6532L11.7201 18.4798L11.7253 18.5669C11.7477 18.7553 11.8412 18.928 11.9867 19.0498C12.1322 19.1716 12.3188 19.2332 12.5082 19.2221C12.6976 19.211 12.8756 19.128 13.0059 18.99C13.1361 18.852 13.2088 18.6695 13.209 18.4798L13.209 11.6525L13.337 11.6026C13.7407 11.4313 14.0849 11.145 14.3269 10.7793ZM12.991 9.02004C13.1306 9.15965 13.209 9.349 13.209 9.54644C13.209 9.74388 13.1306 9.93323 12.991 10.0728C12.8513 10.2125 12.662 10.2909 12.4646 10.2909C12.2671 10.2909 12.0778 10.2125 11.9381 10.0728C11.7985 9.93323 11.7201 9.74388 11.7201 9.54644C11.7201 9.349 11.7985 9.15965 11.9381 9.02004C12.0778 8.88043 12.2671 8.802 12.4646 8.802C12.662 8.802 12.8513 8.88043 12.991 9.02004ZM17.6757 17.6088C18.5429 17.3021 19.1645 16.4742 19.1645 15.502C19.1647 15.04 19.0216 14.5893 18.7549 14.212C18.4883 13.8347 18.1112 13.5493 17.6757 13.3952L17.6757 6.56866C17.6757 6.37122 17.5972 6.18187 17.4576 6.04226C17.318 5.90265 17.1287 5.82422 16.9312 5.82422C16.7338 5.82422 16.5444 5.90265 16.4048 6.04226C16.2652 6.18187 16.1868 6.37122 16.1868 6.56866V13.3952C15.7509 13.549 15.3734 13.8342 15.1064 14.2116C14.8394 14.5889 14.6961 15.0398 14.6961 15.502C14.6961 15.9642 14.8394 16.4151 15.1064 16.7924C15.3734 17.1697 15.7509 17.455 16.1868 17.6088V18.4798C16.1868 18.6772 16.2652 18.8666 16.4048 19.0062C16.5444 19.1458 16.7338 19.2242 16.9312 19.2242C17.1287 19.2242 17.318 19.1458 17.4576 19.0062C17.5972 18.8666 17.6757 18.6772 17.6757 18.4798V17.6088ZM17.4576 14.9756C17.5972 15.1152 17.6757 15.3046 17.6757 15.502C17.6757 15.6994 17.5972 15.8888 17.4576 16.0284C17.318 16.168 17.1287 16.2464 16.9312 16.2464C16.7338 16.2464 16.5444 16.168 16.4048 16.0284C16.2652 15.8888 16.1868 15.6994 16.1868 15.502C16.1868 15.3046 16.2652 15.1152 16.4048 14.9756C16.5444 14.836 16.7338 14.7576 16.9312 14.7576C17.1287 14.7576 17.318 14.836 17.4576 14.9756Z" fill="#EC008B"/>
</svg>
