<svg width="25" height="25" viewBox="0 0 25 25" fill="none" xmlns="http://www.w3.org/2000/svg">
<path d="M6.25935 4.88686H18.7172V3.8487C18.7172 3.57337 18.6078 3.30931 18.4131 3.11462C18.2185 2.91992 17.9544 2.81055 17.6791 2.81055H4.01001C3.68878 2.81055 3.38072 2.93815 3.15358 3.16529C2.92643 3.39243 2.79883 3.7005 2.79883 4.02173V17.6908C2.79883 17.9661 2.9082 18.2302 3.1029 18.4249C3.29759 18.6196 3.56165 18.7289 3.83698 18.7289H4.87514V6.27107C4.87514 5.90395 5.02098 5.55187 5.28056 5.29228C5.54015 5.03269 5.89223 4.88686 6.25935 4.88686Z" fill="#EC008B"/>
<path fill-rule="evenodd" clip-rule="evenodd" d="M7.29597 22.1899H21.138C21.4134 22.1899 21.6774 22.0805 21.8721 21.8858C22.0668 21.6911 22.1762 21.4271 22.1762 21.1517V7.30964C22.1762 7.0343 22.0668 6.77024 21.8721 6.57555C21.6774 6.38086 21.4134 6.27148 21.138 6.27148H6.94992C6.76636 6.27148 6.59032 6.3444 6.46053 6.4742C6.33073 6.60399 6.25781 6.78003 6.25781 6.96359V21.1517C6.25781 21.4271 6.36719 21.6911 6.56188 21.8858C6.75657 22.0805 7.02063 22.1899 7.29597 22.1899ZM18.9629 9.05638H9.47939V11.1656H18.9629V9.05638ZM9.47939 13.176H18.9629V15.2853H9.47939V13.176ZM16.3488 17.2957H9.47939V19.405H16.3488V17.2957Z" fill="#EC008B"/>
</svg>
