<svg width="24" height="25" viewBox="0 0 24 25" fill="none" xmlns="http://www.w3.org/2000/svg">
<path d="M20.0385 4H3.96156C3.57394 4 3.20219 4.15398 2.9281 4.42807C2.65401 4.70217 2.50003 5.07391 2.50003 5.46154V20.0769C2.49834 20.3556 2.57718 20.6289 2.72708 20.8638C2.87697 21.0988 3.09153 21.2855 3.34498 21.4014C3.53811 21.4913 3.74852 21.5381 3.96156 21.5384C4.30466 21.5376 4.63638 21.4153 4.89786 21.1931C4.90222 21.1903 4.90621 21.1869 4.90973 21.1831L7.84377 18.6154H20.0385C20.4261 18.6154 20.7978 18.4614 21.0719 18.1873C21.346 17.9132 21.5 17.5415 21.5 17.1538V5.46154C21.5 5.07391 21.346 4.70217 21.0719 4.42807C20.7978 4.15398 20.4261 4 20.0385 4ZM7.98079 12.4038C7.76399 12.4038 7.55206 12.3395 7.3718 12.2191C7.19154 12.0987 7.05104 11.9275 6.96808 11.7272C6.88511 11.5269 6.8634 11.3065 6.9057 11.0938C6.94799 10.8812 7.05239 10.6859 7.20569 10.5326C7.35899 10.3793 7.55431 10.2749 7.76694 10.2326C7.97957 10.1903 8.19997 10.212 8.40027 10.295C8.60056 10.3779 8.77176 10.5184 8.89221 10.6987C9.01265 10.879 9.07694 11.0909 9.07694 11.3077C9.07694 11.5984 8.96145 11.8772 8.75588 12.0828C8.55032 12.2883 8.27151 12.4038 7.98079 12.4038ZM12 12.4038C11.7832 12.4038 11.5713 12.3395 11.391 12.2191C11.2108 12.0987 11.0703 11.9275 10.9873 11.7272C10.9043 11.5269 10.8826 11.3065 10.9249 11.0938C10.9672 10.8812 11.0716 10.6859 11.2249 10.5326C11.3782 10.3793 11.5735 10.2749 11.7862 10.2326C11.9988 10.1903 12.2192 10.212 12.4195 10.295C12.6198 10.3779 12.791 10.5184 12.9114 10.6987C13.0319 10.879 13.0962 11.0909 13.0962 11.3077C13.0962 11.5984 12.9807 11.8772 12.7751 12.0828C12.5695 12.2883 12.2907 12.4038 12 12.4038ZM16.0192 12.4038C15.8024 12.4038 15.5905 12.3395 15.4102 12.2191C15.23 12.0987 15.0895 11.9275 15.0065 11.7272C14.9236 11.5269 14.9019 11.3065 14.9441 11.0938C14.9864 10.8812 15.0908 10.6859 15.2441 10.5326C15.3974 10.3793 15.5928 10.2749 15.8054 10.2326C16.018 10.1903 16.2384 10.212 16.4387 10.295C16.639 10.3779 16.8102 10.5184 16.9307 10.6987C17.0511 10.879 17.1154 11.0909 17.1154 11.3077C17.1154 11.5984 16.9999 11.8772 16.7943 12.0828C16.5888 12.2883 16.31 12.4038 16.0192 12.4038Z" fill="white"/>
</svg>
