<svg width="24" height="24" viewBox="0 0 24 24" fill="none" xmlns="http://www.w3.org/2000/svg">
<rect width="24" height="24" rx="12" fill="white"/>
<path fill-rule="evenodd" clip-rule="evenodd" d="M12 6.74488C10.2022 6.74488 8.74488 8.20225 8.74488 10C8.74488 11.7978 10.2022 13.2551 12 13.2551C13.7978 13.2551 15.2551 11.7978 15.2551 10C15.2551 8.20225 13.7978 6.74488 12 6.74488ZM8 10C8 7.79086 9.79086 6 12 6C14.2091 6 16 7.79086 16 10C16 12.2091 14.2091 14 12 14C9.79086 14 8 12.2091 8 10Z" fill="#636363" stroke="#636363" stroke-width="0.5" stroke-miterlimit="10"/>
<path fill-rule="evenodd" clip-rule="evenodd" d="M12 14.7603C10.928 14.7603 9.87475 15.0421 8.94622 15.5774C8.0177 16.1127 7.24655 16.8826 6.71024 17.8098C6.60508 17.9916 6.37229 18.0539 6.19027 17.9488C6.00826 17.8438 5.94596 17.6113 6.05111 17.4295C6.65424 16.3867 7.52148 15.5208 8.56571 14.9189C9.60994 14.3169 10.7944 14 12 14C13.2057 14 14.3901 14.3169 15.4343 14.9189C16.4786 15.5209 17.3458 16.3868 17.9489 17.4296C18.054 17.6114 17.9917 17.8439 17.8097 17.949C17.6277 18.054 17.3949 17.9917 17.2898 17.8099C16.7535 16.8827 15.9823 16.1128 15.0538 15.5775C14.1253 15.0422 13.0721 14.7604 12 14.7603Z" fill="#636363" stroke="#636363" stroke-width="0.5" stroke-linecap="round" stroke-linejoin="round"/>
</svg>
